<mxfile host="app.diagrams.net" modified="2024-02-14T18:11:49.872Z" agent="Mozilla/5.0 (Windows NT 10.0; WOW64) AppleWebKit/537.36 (KHTML, like Gecko) Chrome/86.0.4240.198 Safari/537.36" version="23.1.4" etag="kSlapywd16jgjGqRLExo" type="github">
  <diagram name="第 1 页" id="3FqUm8z6cg2LeuvqN0N6">
    <mxGraphModel>
      <root>
        <mxCell id="0" />
        <mxCell id="1" parent="0" />
      </root>
    </mxGraphModel>
  </diagram>
</mxfile>
